<mxfile host="app.diagrams.net" modified="2023-05-23T02:17:46.002Z" agent="Mozilla/5.0 (Macintosh; Intel Mac OS X 10_15_7) AppleWebKit/537.36 (KHTML, like Gecko) Chrome/113.0.0.0 Safari/537.36" etag="FRGYqoAve9uKnG70B1kE" version="21.1.7" type="github">
  <diagram name="第 1 页" id="axrJsnIMon9cmQhNj4tk">
    <mxGraphModel dx="954" dy="648" grid="1" gridSize="10" guides="1" tooltips="1" connect="1" arrows="1" fold="1" page="1" pageScale="1" pageWidth="827" pageHeight="1169" math="0" shadow="0">
      <root>
        <mxCell id="0" />
        <mxCell id="1" parent="0" />
        <mxCell id="m7qQhjfFafRTeIDe8pk5-14" style="edgeStyle=orthogonalEdgeStyle;rounded=0;orthogonalLoop=1;jettySize=auto;html=1;exitX=1;exitY=0.5;exitDx=0;exitDy=0;entryX=0;entryY=0.5;entryDx=0;entryDy=0;curved=1;" edge="1" parent="1" source="m7qQhjfFafRTeIDe8pk5-2" target="m7qQhjfFafRTeIDe8pk5-7">
          <mxGeometry relative="1" as="geometry" />
        </mxCell>
        <mxCell id="m7qQhjfFafRTeIDe8pk5-2" value="" style="shape=image;verticalLabelPosition=bottom;labelBackgroundColor=default;verticalAlign=top;aspect=fixed;imageAspect=0;image=data:image/png,iVBORw0KGgoAAAANSUhEUgAAAMgAAADICAYAAACtWK6eAAAAAXNSR0IArs4c6QAADSdJREFUeF7tnQ2S2zYMhZ2TpT1ZmpO1OVk7mJpZrVa2QPyDfJ7JJBOTFPmAjwAo2f72wAsKQIGXCnyDNlAACrxWAIDAO6DAGwUACNwDCgAQ+AAUkCmACCLTDb02UQCAbGJoLFOmAACR6YZemygAQDYxNJYpUwCAyHRDr00UACCbGBrLlCkAQGS6odcmCgCQTQyNZcoUACAy3dBrEwUAyCaGxjJlCgAQmW4zvf54PB70h17fTx3H/78b75+LN389Ho/x/1fvz8wPbd8oAEDs3OOvw1AEAsf57a7+AcyAB+AYqAtA5CIOIH7Ih3DvOSD5eYg47hdd6QIAhG/NAURGdODP8n1LADOpJAB5L1iHKDFp8k/NCRhEF9QgUz40iurKqdPUghiNCRTULhdCIYJ8iELRYicoXnGDqHJQBoA8HgDjdYih9Ot4OscIRms12RkQgMH35W1B2REQgMEH49xyu/RrJ0AAhhyMK1D+tBuu7kg7AAIw/PyPIFn6jv3KgAAMPzCOIy+ddq0KCOCIgeN4lSUL+dUAARjxYJyvuFTatRIgfyc8QZvvjjVnsEw0WQEQRI2akCxRm3QHBHDUhGOZ2qQzIEip6sMxZkjRpOV9k46AIGr0AaP9cXA3QABHTziOs251ytUJEMDRH46xgjanXF0AARzrwNEKkg6AAI714GgDSXVAcFK1LhwtIKkMCOBYH47ykFQFBHDsA0dpSCoCAjj2g6MsJNUAQUG+LxwlIakECOAAHOUgqQII4AAcZwVK3EysAAjgAByvFEh/LCUbEPqaTyrK8YICrxRI9dHUiz/hiP4dDbhiLwVSU61MQHCc28tRM2ebBkkWIKg7Mt2t57VTIMkAJKLuuPoE20jlxje4I7WbB2X8TMJVz4hvxg/31/ALBtUd3NMPgoQMC1hewzJ+YOfuGxQjsoLwKBINSISIZGrJugDLByRcKI5YRdk2FBKJI80H5v97RKRWdB3tFwTsDIrW+f6VOsdkvzC/DbtQUGpFOnPTqzub7ASKFoyhZdTJpNV873xAlIrcDnrRICr8WgIylrEyKNaOFmln67lf+nVEBIlKrcYCvdakMf65wKUfzDy/rorg4+EB/fz0+SU9XPByrlVs/VtnL2c6GjIq7FrUH3fR8S6aHI9B6d93Jz931+O+P36Zd0D0DhwvOMZco+oQup73WtxTrOgdRVugcx2Sogk544gEkTBw53i+70NzjfhBzkhASAvXTd518MDCfDiN+47C9c6N20VmDO5RxBOQ6OjhLtbGTj+z9GhAXO3uCUiGUFZHvDMOgbafFdAcZki1dMscvADJiB4kLgCRuphdvwxA3GoRL0AyogcAsXNyzUhZgLhEEQ9AsqIHANG4tV3fLEBcoogHIFnRw7VYs/Of5UfKBMQ8ilgDkhk9AEgN9jI3SPMoYg1ItjjmO0gNn2s1i6V8wBKQ7OhBXhR1J72VxwZPNvpO+tXyzPzabKDAz3vc2dtyTXfXwvtfFagAiFkmYelM2aF1mAr3QvKwrZBFmNaiVoBUEcZUnDw/a3vlKpukWbFuBUglYczCa1s3zZv4cn5gBUiFvHO4BQr1PEAq+YHJRmkBSKX0CnfT8+CgK2feJHQ5zbIAZLmwmutj7a9eCRJ1FFkJEKRWddiqsmmmA1IpvcLxbh1AaCZV6hFVEFB1LnRzEHDUgqNSPaLyDS0gFUIpUqt6cIwZVahHVGmWFpAKYVS1Q9T1rSVmVgEQ1QaqAaRC/aFa/BIuWH8RFSAR+7m4Y5H6A9EDgHAUEPuJBpDs+gPRg+MaNdpkRxFxHdIZEPGuUMNntprFloBkFuiIHv34aukv0giSXaADkH6AZEcRka+LOhUo0JFeAZBZBUS+LupU4KlN6bxnRUV7WwUy0yzRpip1tMwTLKRXtk4bOVqm34hOsgBIpHvgWpl1SCgg7UIlfLOEApmHO6LMQxpBMgGRzrmEh2ASqY/BT/vOdIengQEIPF2qQCvfkQCSGSbJKJI5S42JfvYKABB7TX+PKMojHeeDoecVyDzJmt5cpzsk3yQEIPMOWa0HAHG0CABxFDdo6Myj3umbhYggQV6By/xWYHlAMhcoutkD5yylQKb/hESQzAUCkFK+LppMpv8sDwhqEJFPluqUWaQDkFKugMlcKQBAHP0CEcRR3KChAYiz0JKTN+cpYfgJBZYHBI+aTHgDmn5RIPNRk5AaBIDA6zUKZAIynX1Md0h+1IQMg6NejXvm9m23uQKQXIfZ7eqZ90BI62l/n+7wtGhmmMRJVl+sMgv0bQARLbSvTy0183YbqzSCZO8EqEP6cZNdf4gyDwDSz9G6zjgbENGmKgUku9gS7QZdPWuReWdnHdP3QDS5fDYgOO7tRU129CC1AEgvn9lqttnRIxwQumDmicTwLmmKuJV3FlhsW1/ROFiFRYsKrwIOs9MUKqTj4ppVA0iFsKmpo3Zy0sy1VthIUwCpsDOgWM90/ftrVyjOxfWHdvetAoh2HfdmRgupAhWiRxogVQp1RBGp+/r2q5KCqzZQTQ1SCRBA4uvss6NXyi7E9YeKrKdilYRQhdJZD0D7lwpUqTvGBEU3CEdnbQSpBohqt4DTmyhQKbVSb5paQKqlWUi1THxcPMhyG6YFINV2DEAi9m9Vx2pw0GLUGYUFIBWFASQqX5/uXNUHVPWHRZE+lKxy3n22LB5Fmfb16Q5V4TDxb4sIQhOpmGYNS6vD7LTL7NOhMhwmdrcCpLJQJrnoPj7PXml1m6vTK5MQdJCzapp1tLiJaGwXWrNhdTBMN0SrCEKT6iDcEI9qEwrBeM0p0MXGZrXnjoAMlzATcc7HWrbuAsYQ1yxTsASEJtchzTp6KEURRJP3zHaDw6Q4H5JYA2IlJi3y13OS9G96vuf782+PLRigfFaV9KY/PzzEdh7TLHpYF+lj3doocgetFYRXdtodFNKWXh3BMC3OvSKItlifCY/e9152gsVz03EOGJ+GN40eXhFEW4vMLDLCsAOUsUNFGtzzWt2jxZU2d9nHtJ7mAz5noHXcapBcFfbdgFkRiKNdXE4lvQCx+NDMzIK1QE7vLIcOVSPM6kCcbebiyy6DGkWRsUNzj2GzIaGoV+mlPSyptJa7ucxspndjfXrfExBtLSIJnxmQzBwsTBlH2dgiiiunENbdzY/dBjaMIkNl7i4RDclMvRTmMQ76R8+dez1X/b0BsYwiNBYXkqj0gjsfrrE92kVvGB5reDWme/SOAMTaQBynjEgv3I1j6GlRG4bhlFlDuUYPmkEEINZRhBtJrME8W8zdOCwX4TXy1oI3C9tWIRtUFCAeBuLM3eO6ZOYQ49j6U7sHSe+WH7JBcZzsbqLc962dlSuQxyMp3GtztYloZ61/xJxfXYOTZpvMLxIQ61RrRiTLHLxj9BjOYqmDiQMKBgnVPxoQ612MO//x6Db9rX11jB5jzdb6a7WU9A/Vn+tgkoW86mNppJkoQvOxuHaGZlb6W6zfai6ScWbtLbnGpz5ZxraqC6SCSSOK9HpqQxkO0DXNCk2tht5ZgFjep9CuYXx6jjShTy3Sa3yakf49vtxhlS956BhFUuAg42udS7OxWRlqhV1do+NsXyvdZ6+raR9adxwnmgmIVU1A4wASvvt1AyTVttmAWEJSYS18N81raZneeq8iFY7sFOsorkXhmC6mt7cYjd8FkLS6o1KKNeZiZTRAwqPIYkPiXUnWqgQclSIIzQWQyJxJ0qs6IGXS5TITeVrZqoDc6St7VgMk7cTqSshqgFgW7Tjdeo1O1QhSCo5qKdbRnFaRhMZENPkKSkVAysFRGRDrSDJcpOpX9EjSJE2faoCUPVypmGJ5RZIrhxqPjxwfLRlR5/zkLz2GUu2rfaSQVAKkZOQYwlYHxPJ0S+pMFY/FtWupAkhpOKqnWEcnsDoC1jpWhw2Fs8ZsQNrUhZ0MLn1EneMw3Dad9Hq3pkxAytwE5Bi9o8GtPkvC0efcpqNeV+vMAqRsMf7KGboa3PIYeAaUrnqd15gBSDs4OtUgV06cAQkAmdlOPtq2hKM7IOOEi34uzOLLGDimByAclT7atKo3rpa2isGjoskqekWkWG2jxorn+lHRBIDcR5A2R7j3S8n9TDpnfpI2nqdcAOS9RZaIGqtGkPONRY/aBIBcA7JU1NgBkLFG69oEgHwFZLmosRMgY61WaRcAWeDodiZvX8XgnDVbPKqyil6aU6ylI8bZkVYxOAeQ0UYDyip6SQDZCozhLKsYfAYQDSir6DUDyJZgAJAPpGYiyk6AbA0GALmOOe9gaf/YxGHJrw4tCAp60ekfXslfXl3ZAAMUmuN4zqv8p98mBD1vBIgWL8RbJWWY8A00hQJ8BQAIXyu03FABALKh0bFkvgIAhK8VWm6oAADZ0OhYMl8BAMLXCi03VACAbGh0LJmvAADha4WWGyoAQDY0OpbMVwCA8LVCyw0VACAbGh1L5isAQPhaoeWGCgCQDY2OJfMVACB8rdByQwUAyIZGx5L5CvwH/laB515tmCwAAAAASUVORK5CYII=;" vertex="1" parent="1">
          <mxGeometry x="63.7" y="170" width="75" height="75" as="geometry" />
        </mxCell>
        <mxCell id="m7qQhjfFafRTeIDe8pk5-16" style="edgeStyle=orthogonalEdgeStyle;rounded=0;orthogonalLoop=1;jettySize=auto;html=1;exitX=1;exitY=0.5;exitDx=0;exitDy=0;entryX=0;entryY=0.5;entryDx=0;entryDy=0;curved=1;" edge="1" parent="1" source="m7qQhjfFafRTeIDe8pk5-3" target="m7qQhjfFafRTeIDe8pk5-7">
          <mxGeometry relative="1" as="geometry" />
        </mxCell>
        <mxCell id="m7qQhjfFafRTeIDe8pk5-3" value="" style="shape=image;verticalLabelPosition=bottom;labelBackgroundColor=default;verticalAlign=top;aspect=fixed;imageAspect=0;image=data:image/png,iVBORw0KGgoAAAANSUhEUgAAAMgAAADICAYAAACtWK6eAAAAAXNSR0IArs4c6QAACuxJREFUeF7tnWFy1DgQRj3cATgO5DakKncA7pAquA3hOLB3wFsaMsEzsWekVquldr/8oTaRLOn7+rlbsnfmMPGDAiiwqcABbVAABbYVABCiAwWuKAAghAcKAAgxgAIyBcggMt3oFUQBAAliNMuUKQAgMt3oFUQBAAliNMuUKQAgMt3oFUQBAAliNMuUKQAgMt3oFUQBAAliNMuUKQAgMt3oFUQBAAliNMuUKQAgMt3oFUQBAAliNMuUKQAgMt3oFUQBAAliNMuUKQAgMt3oFUQBAAliNMuUKQAgMt3oFUQBAAliNMuUKQAgMt3oFUQBAAliNMuUKQAgMt3oFUQBAAliNMuUKQAgMt3oFUQBAAliNMuUKQAgMt3oFUQBAAliNMuUKQAgMt3oFUQBAAliNMuUKQAgMt2G6vXft4ePaUJ/pun47+XP4TB9mOfp5+Xv30zTU/rd2/vH47/8rGiHKL4U+PXt4UuacQr6aQOIihUdQUkwJXgAZ5rIIBXRZNF1AcRni/FWxniKDAyAdIq6rWFTuZRKpcNh6gXELUWeDvP0NUp2AZBb4WD095QpBoZiS4XdwwIgRgCsDTNA+aS1+mMZ9v7+8bg/2tMPgHRw02m2yFVqV1kFQHJtV2i3czAuFdoFKACiEPi3LhEMjDM55nn66rn0ApBb0V3598hwLKU7zNOdx5MvAKkEYKs7YKwq467sAhBlQNJzjPnvM4zV1z6Uh3N5OU9lF4AohhhZo0jMp3efHu+KenRoDCBKogOHTMjR9yYAIvP1pddzSfWj8jKhu49ccgFIRWiSNSrEe911yJILQIQeA4dQuOvdhoMEQAQ+A4dAtPwuQx0FA0i+cceWwFEomLD5KJt3ACkwEDgKxFJoOgIkAJJpJHBkCqXcrDckAJJhKHBkiNSuSdeNO4DcMBY42kV+wZW7QQIgV1ziIWBBCLdv2gUSANkwFjjaR3zpCD2euAPIhku/vz+k10d4I7c0ihu3t4YEQFYMZd/ROMorL//u06NZ3JoNVKmJWXdKKzOpawYy248AyMIm4KiJWdu+VqUWgCx8Zd9hG+S1o1lAAiDPLpE9asO1S//mpRaAPPv6+/vD3MViBq1SoHUWARDe0K0K0BE6tzzVCg8IpdUIIV43h5ZZJDwgbMzrgnOU3q0gCQ0I2WOU8K6fB4DUa/jqCmSPBqJ2vGSLvUjYDEL26BjJjYZukUXCAkL2aBSlnS+rnUVCAkL26BzFDYfXziIhASF7NIzQAS6tmUUAZABDmYKuAppZJBwglFe6wTji1QCkwhXKqwrxHHXVKrPCZRBeSnQU5RVT1coioQChvKqIOIddNbJIKEAorxxGecWUAaRQPMqrQsGcN9cos8JkEMor59EumD6ArIiWQEi//nPxmVaHw/SBz7kSRJnzLrVllusMkj6/KvlH8DuP4obTDwVIyg4pMwBEw4ja2aVryywXGYRPOtxZ1BouZ9eAAIZhJO13qKqPBhoygwDGfqO1x8pq9iFDAQIYr8NnWSI8H1V/5jSuDDP3gGD8uuFr9TPPc8rgOJ5yztPd2/vHp/Ke09Q9g5A1Nm3brJ3RrCzUazbqXQHB6HI4Tj14bSYfEpeAAMe2wTklAfrtGBDeqq2DI/UGkJ0CAhzbxpaWApRZ2ZCIn4WY7kGAQw8Oskg2HKnh+IBQElw1VGwgWSQLFLG+JhkEOK6bmLMp37oC2joHhAdb7eCgzMqCY9wSCziuG1i6Kd+6GmXWTVDGLLHYlOtuyimzboKw1WA8QMgebTblZBERJOMBQvbYNrLm7VKySDkgNaVsk1Msskf9k/LSMEDzNuVsE0DIHutm1dzJcoBBd33d1QHhXF7fpBw4OPJtk7XVAeHIcdUo8SYxF45TO/R/rVjNg1hVQKiD+8JBFlm/ndQciqgCQg2se/cqzR5kEf0blDYgs9TUPfZrvSnnyDcraqrKWzVAKK/OzeoFB2XWK2jGAITy6syYKlOy7os3GrFZ/ytQzQb92F/DjHQNDHlRsjscZJF/UT0EIJRXeoZo3bC4aR2VrL5ZqWQQHg7qpHNNOMgiAwHC/mOaem7KOc1aV6C2vFLbgwBIfSrXzh6n60XeG9Y8IDzpp1JiBQekus5tBUfwMkvFFy1Awj4g1EjjLQGJulnX8gVAKqJTy4SKKWR1jXiIolFeqexBAh/xqqTwrAivbBQQEDVvqjNIVEC8ZI+Im3VNbwBEeHfWSuHC4Yu7Rcoimt4ASHGojflQMGcZEY58tZ9HVQMS9ZQkvcZwmKev0q/2yglo7TYRsohm9lDZpAcG5BS/T/M8/Uz/8Waazr4HbzR4AgCitjnXflAY9jlIwV3+BZ4lUJYQ7f1ARXNzrg3ID76auACVf03V73jXZrHzNx6aaKm1BwEQAR+SO97iK7OPI66Vd2tZae/llUTLHMtUANm7+DlCStpITN17mSTRUfvkajkHAJE4otRHcuLCzeiV+E1KK9U9CHc1ETEiY3e+jygWUpKFSwZRySAc9ZZI/tJWCggnhoaHHGqAkPrLIJHc+cjU5xpLNCxzSfFTTQCkTHqJuQDyT+OWG3P1TfrpghHe9SnDYLO1qLziJlRXnkq8Uyux0uAYmGeBJHs87/N43qTwUT55Lv1tBSAlaim1lRzvUl49B+w83Vm+nqMKCKdZWQRRXmXJ9LqR1b6j2R6EMuu285RXtzVaa9EDDvUS67Qw9iK6m/Po5VUvOABEdjMT9yJ7iKQTlaSikVY6qe9ByCK62SP4vq4rHM0ySLpw9LLgEhNp9gisY3c4mgLChv0MEbHZQV9OFOulVVqdrtOsxDoNENTgM5+k2SPoYccwcDTPIAtIwr6BKoUj4t6j52nVVuZpnkEil1o1hkfLvDVaaZdVy+uZABIRkhrDo23Ma7RqCYdZiRXw6Leqjg6UPYb/8D2zDBIJEsnLiCd9omSPkbNGlxJrOeheT2c0TI/w/9Ro6NS6tDI75t1ayN4g0TB976WVhkZWYHQHZE9P2zWM39sN4yKQh99rdD3mvUb94pMCP1rfHTTGA47rKmroo+GT9Brmm/StiXorL5Lx6dPca//vtr1uyr2DMUSJdQmLl2yiab63G8OtO7GmNrfGsvj7MBlkudhRQdE2/+KDqF2WmMm3pEv69/394xeLoLUcY0hALp4JfO791QraYKwZPOpN4VowWuhiCcPaWEMD0hOUnnfFgWE5fpuWxt6rd+Dnju8CkI3yK/1atSzpCcWWYQmWP9P08XCYPmivNydIRtQkZ95abdwBcgnLInhOf8qF5viVaN7uiAmYNO+Ldeeu+VrcnH3XYu3pnFaA9r6Oa0CuiXcKpGWbPZu+tt4E0aVGo3/RaG8gLsffLSCjCc18fCoAID59Y9ZGCgCIkdAM41MBAPHpG7M2UgBAjIRmGJ8KAIhP35i1kQIAYiQ0w/hUAEB8+sasjRQAECOhGcanAgDi0zdmbaQAgBgJzTA+FQAQn74xayMFAMRIaIbxqQCA+PSNWRspACBGQjOMTwUAxKdvzNpIAQAxEpphfCoAID59Y9ZGCgCIkdAM41MBAPHpG7M2UgBAjIRmGJ8KAIhP35i1kQIAYiQ0w/hUAEB8+sasjRQAECOhGcanAgDi0zdmbaQAgBgJzTA+FQAQn74xayMFAMRIaIbxqQCA+PSNWRspACBGQjOMTwUAxKdvzNpIAQAxEpphfCoAID59Y9ZGCgCIkdAM41MBAPHpG7M2UgBAjIRmGJ8K/A+yPRQU1Ff5ewAAAABJRU5ErkJggg==;" vertex="1" parent="1">
          <mxGeometry x="39.95" y="389.38" width="108.75" height="108.75" as="geometry" />
        </mxCell>
        <mxCell id="m7qQhjfFafRTeIDe8pk5-15" style="edgeStyle=orthogonalEdgeStyle;rounded=0;orthogonalLoop=1;jettySize=auto;html=1;curved=1;entryX=0;entryY=0.5;entryDx=0;entryDy=0;" edge="1" parent="1" target="m7qQhjfFafRTeIDe8pk5-7">
          <mxGeometry relative="1" as="geometry">
            <mxPoint x="290" y="360" as="targetPoint" />
            <mxPoint x="170" y="319" as="sourcePoint" />
          </mxGeometry>
        </mxCell>
        <mxCell id="m7qQhjfFafRTeIDe8pk5-56" style="edgeStyle=orthogonalEdgeStyle;rounded=0;orthogonalLoop=1;jettySize=auto;html=1;exitX=1;exitY=0.5;exitDx=0;exitDy=0;entryX=0;entryY=0.5;entryDx=0;entryDy=0;" edge="1" parent="1" source="m7qQhjfFafRTeIDe8pk5-5" target="m7qQhjfFafRTeIDe8pk5-55">
          <mxGeometry relative="1" as="geometry">
            <Array as="points">
              <mxPoint x="520" y="195" />
              <mxPoint x="520" y="319" />
            </Array>
          </mxGeometry>
        </mxCell>
        <mxCell id="m7qQhjfFafRTeIDe8pk5-5" value="模型快照" style="shape=image;verticalLabelPosition=bottom;labelBackgroundColor=default;verticalAlign=top;aspect=fixed;imageAspect=0;image=data:image/png,iVBORw0KGgoAAAANSUhEUgAAAMgAAADICAYAAACtWK6eAAAAAXNSR0IArs4c6QAAC/xJREFUeF7tnQ2S3LYOhOWTOTmZ45MlPllSjIderiyNQADEH3urXlXyQlJgoz+BlDTSlwN/UAAK3CrwBdpAAShwrwAAgTugwBsFAAjsAQUACDwABXgKoILwdEOvTRQAIJskGtPkKQBAeLqh1yYKAJBNEo1p8hQAIDzd0GsTBQDIJonGNHkKABCebui1iQIAZJNEY5o8BQAITzfNXn+9Bvt6M+j34zj+0TwgxqIrAEDoWmm27FB8mxi0QQJYJgTTaApANFSkj9HAmIHiamSAQtdb3BKAiCUkDaABxvlAAIUkvawRAJHp99R7BRgA5Ul1xf8OQBTFHIayAAOgrMndp1EBiK7IHmAAFN0cApAFekYAA6AsSCwqiEzUiGAAFFlOUUEU9MsABkBRSDQqyJyIGcEAKHM5RgVh6FUBDIDCSDwqyHvRKoIBUCZAASDXYu0ABkAhgAJAPkT64ziO9j/ps1IE2UM3wSMsQ3oAyHFwnqwN7XCl4ADKcRw7AwIwaCRtDcqOgAAMGhjYo2xWQQAGD4ytQdmhggAMHTC2BKUyIDteql2DwvtRS+9RKgICMDww+fliiXK/ma8ECMDwAePqqA2UvrSNExUjkgqAAAxG4o26pAclMyAAw8jlCodJC0pGQACGgmOdhkgHSiZAAIaTqxccNg0oGQABGAscGmTI8KBEBgRgBHGxQRj98nC4dxBHBARgGDgy6CHC3UuJBAjACOpah7DCgBIBEIDh4MAkh3QHxRMQgJHEpQHCdAPFGhD8rDWA2xKHYA6KFSB45DyxKwOGbgbKakAARkB3FQppOSirAAEYhVyYYCrLQNEGBGAkcFPhENVB0QQEV6UKOy/Z1NQeYdEABGAkc88m4apUEykg7bLt35sIjmnmVEDkcUlnwJHTMLtF3SrJn9xJSwBplaNBgj8oEF0B9p6ECwiqR3RLIL6zAiyvszq99h2oHjBhJgVYVQSAZEoxYpUoAEAk6qFveQVYm3VuBfm3vJyYYDUFTAHBFaxq9qk/H1NAcPe8vqGqzdB0DwJAqtmn/nzazcLpt6Zw9yBNTuxD6puqygxZy6s2eQkgqCJV7FN/HqzqIQWk9Qck9c2VfYZsODQAASTZ7VM7ftbGfJREssQax0ElqW20jLMTVY4+YS1A2njt2axveMI3o5dKxSyuGisqyDgmQCnltzSTUQVjRQU5KwlQ0ngrdaBLwLAApB8DoKT2X9jgl4JhCQhACeuxlIGZgOEBCEBJ6ccwQZuC4QkIQAnjuRSBuIARARCAksKfbkG6ghEJEIDi5sGQBw4BRkRAAEpIv5oFFQqMyIAAFDNPhjhQSDAyADJmD896hfCyahChwcgGSI8XoKh61GWwFGBkBQSguHhafNAGRfvr348RD2g1gObTvFYxY+nloTTvmGnByF5BzunC0otn4FW90oNRDRAsvVZZfW7cMmBUBaTPC08Qzxlb2rocGNUBAShSy9P6lwVjF0AACs3os63Kg7ESkP7dkKvvh/Q3202/4W42gzftsfSSCekJxpOvlnhK8zLvrPma2G1SSyb24IPZWGW2yt/b8+beTK7U49QAZGYCd1ZRnxjRkxqxEw+VsplXXppYLTc9P7PiqcUtBUT7W4VqE5tUFKB8FswrDx0MjddHqcxBCsiq74SoTG4SEs3kMA4doouX7qu0Z7+0WmOTbnH32ithu1UUL51XgTGebUSQSCqI5ecPvBJYHRQvXS3AGCFhv4aUC4hF9bhac3gltBooXjpag9E9xK4i2QDpE/ZKcHZQvHTzAkNcRbiArNqcz+5UvRKeDRQvnSKAIaoiXEAs9x8UaLwMEB0UL10igQFABoK8DBENFC8dWira/vRr0M9gTBeE6Q4vM0ZZYt1VFy+DeIPiNe8ORrvBF/WPtVGvCsi4mfd43ssaFIDxjKUpINqPmDxPT9bC6ylUyfNElBl7gWF9AqBo8dSGpRW3grRgoi+z7u6j9OXAk6Da/13z3hEr2QoTyghGnzbL66xOryNmqyKjP7wqinStDjB4lLN1kwAiTTZvqrq9PEGhno0zxKibFf3R2D5ndxzmoLl00JeGPiL7LEM/xGXL8ZeX4z97XFzoAVLhFU7dpDv7OawWnQYgFSrJefmV7g2ASlarBEaTRHzS0wKkBbP6io2SB8jDiMUlH8m/YTUwWvVt+RP/nFsTkJ7mfvaNfNNoxpKVQQEYD05YAQhAmcHPpy3AIOq+EpAxhCobeZV1LTE3K5pVykPTR20pdSe2FSBjVcHSa4X1348JMJiaWwMCUJiJYnSrdtHEpGKcdfYCBKAwHE/sUm1/4QJG19obEIBCdD2hGcAgiDTbJAogAGU2cx/tAQZfu8ee0QCpCkqbl/bdeYDxaG95g6iAAJT73AIMue/JI0QHBKDUXkqFf0ohCyA7g1KxYoQHI9pVLHLJezWsdOOr3Q3+cbFHqQbG3Txnc2/aPlsFOYtTCZQ2t/4Eqsbr/02N9OZgyx8HWTnR7IBUXHqtzLfl2KnByL7Eukt0tYpiaWitY5UAoyogqChaNp8fpxQY1QEBKPMG5/YoCcZKQPpTpO39rO2vXaEZ/zxeRoClF9f+9/08wOjeOke1zFOam/RZE3q8zqbaz4H1bf88ojUYM5e71e+vaACi8QI59Yk95BmgPINwdZZWeRHCxKFnT7p9aDU/SQHRgGPUS21ixCQAlGehrCtGi4gLhrqXpICs+pAOQHk27uoWvVqIX51DDHRmKUUc8v/frLcXx7H/JIBoUP4UOEB5Ukj/v1trvgIMtUoiAWRV9bhKuXXSdlx6WWu8GozRR+zXj3IBsageEUDRWg/rn+d1RvTYX1iC0VViL7WyAaJ+lWLCZ14nhYkQyU13AUNcRbiARPl4jvWyIHtF2REM0UmVC4jl/oNyWvS66ZjlJXg7gyFaZlUBZDxL9LM8BSyNNpGXXgDjI8OsfQgXkChLrDuD715RPMCIfKJoPgEgF7TsBgrAuF8TsPar3Aqi/YiJxlLn3Rgev4e2PKNag+FxqVbqEVNAWrDRl1nvll/aL3F7l7yVoAAMOjasYsDq9IopWxU5S8k6o9Dz8VtLTVAAxlwi2LmWAJL9noDo+vhcfj61bqC0H5ONX7SlDOexTMy4lLrSku1zdschCs0zI8Uoq9qwzzKCgCjaWVeLNp0qYLS5iPKqAUiVSuJVUfpx+89Jx8fLrR41H2Oo9E4uERxNFC1AusCUM6LghGvaVSyuabSyg1WqGF0J9hO8o5TagAAUmVGte1cEg3VD8E74VYAAFGurzx2vUqVfujReDQhAmTPu6tYAY1JhK0AAymRiFJtXXEaJr05R9bUGpCooy15cRk3kRbuKYJhf8vYCpCoobV6Wj7Fc8QMwBGeVc1dvQACKXjIBhp6Wv0aKAghA4ScXYPC1e+wZDRCA8piyXw0ABl0rdsuogFQERevKC8Bg232+Y3RAAMpHTgHGvL/FPbIAsjMo3MfjxeZYOID55VruXLIBshMoFe96pwGjGy0rIJVBaXPL8r4t6ok5HRhVAKkKCtV40dul/8lA9gpyNkjFZUl0CK7iSw9GtQoCUGJgVAaM6oBg6WUHTNr9BUWiakusuzlj6UVxw1yb0mDsUkGw9JozPaX1FmDsCgiWXhQErttsBcbugAAUOihbggFAPhsEe5TfgdkaDAByfQYFKD+/o9G/kU6vM0Vb7nIVazZ9O4ICMC5cAkDeo7MDKADjjQcACK22VAQFYBByD0AIIg1NKoBS7nGQuRTOtQYgc3plvjwMMBi5BiAM0RJVFI+P7sgUDdYbgOgkJNrSC/sLnbyqfx9EKay0w3iDAjCUrYMKoizoazjrFy0AjDV5RAVZpOu4mW//vOo35gBjcQJRQRYLPFQUTVAAhk3eUEGMdNaoKP2DnnhOyjBpqCCGYp8ORd3Qo1r45QgVxFH7fuj++ef2719f/+eP4+dTte3P+lPQASSJEwIqSJxcIJKACgCQgElBSHEUACBxcoFIAioAQAImBSHFUQCAxMkFIgmoAAAJmBSEFEcBABInF4gkoAIAJGBSEFIcBQBInFwgkoAKAJCASUFIcRQAIHFygUgCKgBAAiYFIcVRAIDEyQUiCajAf6nkk+ebr5aPAAAAAElFTkSuQmCC;" vertex="1" parent="1">
          <mxGeometry x="440" y="160" width="70" height="70" as="geometry" />
        </mxCell>
        <mxCell id="m7qQhjfFafRTeIDe8pk5-49" style="edgeStyle=orthogonalEdgeStyle;rounded=0;orthogonalLoop=1;jettySize=auto;html=1;exitX=1;exitY=0.5;exitDx=0;exitDy=0;entryX=0;entryY=0.5;entryDx=0;entryDy=0;" edge="1" parent="1">
          <mxGeometry relative="1" as="geometry">
            <mxPoint x="333" y="318.87" as="sourcePoint" />
            <mxPoint x="443" y="195" as="targetPoint" />
            <Array as="points">
              <mxPoint x="423" y="319" />
              <mxPoint x="423" y="195" />
            </Array>
          </mxGeometry>
        </mxCell>
        <mxCell id="m7qQhjfFafRTeIDe8pk5-50" style="edgeStyle=orthogonalEdgeStyle;rounded=0;orthogonalLoop=1;jettySize=auto;html=1;exitX=1;exitY=0.5;exitDx=0;exitDy=0;entryX=0;entryY=0.5;entryDx=0;entryDy=0;" edge="1" parent="1" source="m7qQhjfFafRTeIDe8pk5-7" target="m7qQhjfFafRTeIDe8pk5-47">
          <mxGeometry relative="1" as="geometry" />
        </mxCell>
        <mxCell id="m7qQhjfFafRTeIDe8pk5-51" style="edgeStyle=orthogonalEdgeStyle;rounded=0;orthogonalLoop=1;jettySize=auto;html=1;exitX=1;exitY=0.5;exitDx=0;exitDy=0;entryX=0;entryY=0.5;entryDx=0;entryDy=0;" edge="1" parent="1">
          <mxGeometry relative="1" as="geometry">
            <mxPoint x="332" y="318.87" as="sourcePoint" />
            <mxPoint x="442" y="443.75" as="targetPoint" />
            <Array as="points">
              <mxPoint x="422" y="319" />
              <mxPoint x="422" y="444" />
            </Array>
          </mxGeometry>
        </mxCell>
        <mxCell id="m7qQhjfFafRTeIDe8pk5-52" value="制备" style="edgeLabel;html=1;align=center;verticalAlign=middle;resizable=0;points=[];" vertex="1" connectable="0" parent="m7qQhjfFafRTeIDe8pk5-51">
          <mxGeometry x="-0.8257" y="2" relative="1" as="geometry">
            <mxPoint x="12" y="2" as="offset" />
          </mxGeometry>
        </mxCell>
        <mxCell id="m7qQhjfFafRTeIDe8pk5-7" value="Model Operator" style="shape=hexagon;perimeter=hexagonPerimeter2;whiteSpace=wrap;html=1;fixedSize=1;fillColor=#dae8fc;strokeColor=#6c8ebf;" vertex="1" parent="1">
          <mxGeometry x="210" y="257" width="120" height="123.43" as="geometry" />
        </mxCell>
        <mxCell id="m7qQhjfFafRTeIDe8pk5-21" value="" style="image;sketch=0;aspect=fixed;html=1;points=[];align=center;fontSize=12;image=img/lib/mscae/Docker.svg;" vertex="1" parent="1">
          <mxGeometry x="56.31" y="280.86" width="92.39" height="75.76" as="geometry" />
        </mxCell>
        <mxCell id="m7qQhjfFafRTeIDe8pk5-27" value="" style="group" vertex="1" connectable="0" parent="1">
          <mxGeometry x="840" y="135" width="90" height="110" as="geometry" />
        </mxCell>
        <mxCell id="m7qQhjfFafRTeIDe8pk5-25" value="" style="shape=image;verticalLabelPosition=bottom;labelBackgroundColor=default;verticalAlign=top;aspect=fixed;imageAspect=0;image=data:image/png,iVBORw0KGgoAAAANSUhEUgAAAMgAAADICAYAAACtWK6eAAAAAXNSR0IArs4c6QAAD0lJREFUeF7tnT2THUcVhnt2VRQSQl6XZFGWMFbgAAgw/ALthsA/IKEIlENmR9JGIjO5IvMfwKHu/gJbBEARSeWyKbChFiSjD+/eofrundXsaO7M6c+3P95NXC6d7ul+Tz9zzunpmdso/lEBKrBRgYbaUAEqsFkBAsLVQQUmFCAgXB5UgIBwDVABOwUYQex0Y6tKFCAglTia07RTgIDY6cZWlShAQCpxNKdppwABsdMtSKsf/uGrO7rjP//8W6v/8g+vAAHB+0B9/6Onu03b3u8PpWnbfYKCdw4BAfpgDcZtpdTu2DA0JIwoQAcppQgIQP85MIZDYjQBOGl9SQISWXtdZ7RNo6OG8R9BMZbMuQEBcZZQ1oFp1JjqlaDINPdhRUB8qDjRh08whkX8cmtr8defnl8EnkLV3ROQgO7/wR//p3emRgtwX5dlNPGl5Hg/BCSAvi51hu1wCIqtctPtCIhHXUOlUyZDJCgmas3bEpB5jWYtUgBjWJ/wIeOs20QGBEQk02YjRDolHTKjiVSpzXYExFLDseMhll0Fb0ZQ7CUmIIbapZZOGQx/0bTtAVMvA8V41EQuVsZgnJkko4nc59qSEUSgV8p1hmD4oyYERaYcAZnQqZSoMbUUCAqfg8huFT2rGsAYbgvr/2d98upSYQRJCIzu/Q/b077Gd4JBA0YTArJxDYHrjEXbNPv9g4fI8RCUl8uk+ggCTqdeAaNPMBKS1Q4OX/utdxcLDIbR4kOCUjskVUYQ5IJTSi3+8rMLezb1AnLctYJSFSDIBabBGNYZNpDoyLe1XO6ykLdRz7xNFYCA0ykvYAxdC4bdKEU0X5bptCgaEDAYURYREpQa0q5iAUEuHF/plMl9FDnfkkEpDhDwMfQg6ZQUlO7TpaxPpIrN2xUDCDidgoKRWH1S1LH67AEBgxGlzpi/z41bMO2yVa6QJ+nIBYCoM2zdjdQp9/okywgCjhpJpVNSaNaQ3Az9na5N48kVlKwAAYOh2qbZy/1LhuhoktvXILMBJMZXCku7+01FFzQoubx7kjwgSEfmVGdIU62UdrxySLuSBQScTmVZZzhCwvpkRMDkAAGDAd221XNH1jjIaJ1qNEkKEKSDXI6h2965N70chV4sSD+g5z70ZRKAIB2CrjOm5o5eLEi/oOfegQIFBJxOQesMk7kjFwsSEn3zQn8NEgKIyeLwkb68EjaB71rbzh0JidYPCQpy7tEBQQqdcjolvREgF0uNoEQDpOZj6CHmjgSlptd+gwNim1JI76gzdtnUGZbzheboyGyg+8he6CfywQABgwF/ntG0rf4t9KA/4Hm60wKsqUpPu4IA8ubvP//1zpWdDyzviq7NoFEDfVcNfUdN9XzXPw6f/ubfv7j8O9fFE+U5SPPbP93/zrU3brx+5bUbvgc80R8UDHTE7OuCrE8Ar/0uHn3x+NHzF8dvH9+6ZvW9sak1GiSCaEAa1a7Si2vfe/Pg2zsX9TmfYH/IY+gpgTGERP8/KqLEiKR//9eTg8fPvl6vrWaRJSCd00KAgrxT6nkhj+BL7zZojUKAchaM00osb0D0NC5euvjJ5as7D7554fwvpQ7eYAdNp0I43VGP2eYlgPLP/zx9+Pjp88Pj4/bHr0448wjSn9DVa1cfWtYnUDBSTadm6egZIEFxeO13XWccTdxYCwLEJu1COrYEMIb1CfLVV5MIPJ5Ojd0SCgSkm+bb73z3w4m0y/pr6CZ31k22Js70cb2YfSBvOnqeU9rqdOrwyTODXdCCAdlQn0DTqZLBGEKYEigajKcvjg6ev5hKpyqLIMP6ZOeNnV+h3qwrLZ0yiUhIUPQN6eGXT26Yg1HQLpbUWcv33g3yfGbq+jWDMaxPYj87OXfvszutUvpojsNf4SlWX5nYgNSUTklXYIxo4gcMRhCpT43tQhxDNx5E4g1CgHLu3qe7Sm3tukeNM7Ev/weF0rUQOoIwnZJ64tTO27F6v1GDgBh7knWGV8nOdOYSTcKBwRTLi8dZZ3iRcdWJCSjhwSAgTp5lOuUk32TjOVDiwbHCljWIiasJhola9rZjr77GBYMRxNh7ORxDN55U4g00KH/7/FD53ZkymTQjiEitc3c/3r3w2qUPPB2rF12zdqPpY+ix1CEgIqU1IMtm6742djhWL7oWjZTgGHoslQiISOk+IF2DEG8zigZTsJH8GHosEQiISOkxQLqGM8fqRf3XbmR+DD2WYgREpPQUIF3adf7CNw48vPYrGk8pRvbH0GMpQEBESs8B0nXC+kQkpzZKqM6YGjMBEXlUCgjrk3k506szCMhKAZfDiqaA6Ou1qlnceOf6I6ZdJwsw3TqDgEAA6addl16/eLi9vT3yWZn5O27uFl89e/HJl4+fP7B/qw+pAFMskfo2EWTYcY31yaMvHn+IBKNRat/tKTwBiQZITfUJus7QYBzdun5Ha75977NW5ORRIwIi0s5HBOlfqNT6BF1n9MHo9CYgoiUev0iXDKugtAu6bavBUGq5OLr11mKoOwGRrETALpZwWCuznI+tpJROjWlOQIQrMfY2r3BYZ8xyOraSYjpFQNa/D2Kz+HIARM/L49fqbWSabYM+hj5WZ0wNmhFk1qUnBrkA0k0nwfoEXmd0O1NCl6/MCIhQrdwA6aaVQn2Sep3BCKJfn+/9BJuQiTNmuQKiJ4HaFs6lziAglQPST7tiHKtHH0M3rTMICAE5swYC1idZ1hkEhICMrgGf9UnOdQYBISAb14BrfVJCnUFACMjsvoROu0yO1aOPofusMwgIAZkFxOT5CTKdigVGpwefgwiXTs7bvMIpnjEbq0+QYOjv3DaqPbB52GczfwJiqFptgPSfn/z3a3XT7NddDcWdMY8dNfrDYQQR+rJGQDppmstXhCr5NUOCwQhi6EsCYiiYg3kKYBAQQwcSEEPBrMwxdQZ3sbiLZbVcY6ZYKUUN1iAWy4URxEI0QZNUwWCKJXBe34SAGAqW8M6UyUy4iyVUi4AIhRKAoU1iP8+wHT0BESpHQIRCTZilnk6NDZ2ACP1OQIRCjZjlCAZrEEN/ExBDwdbmSDj0L9tu+t6VdDaMIEKlCIhQqIEZApBz9z7dVWprV39Xt1HLvbEPwklnQ0CEShEQoVBgQIa/h05AhH6r+aMNQok2mrmcxYoVQYZgdJMhIELvExChUGNFtsNhxdCAbAKDgBj6m4AYCtYzTzGCnBTg+pNG6vbUzBhBhH4nIEKhMoggc1GjPwUCIvQ7AREKlTAgJmAwxTL0NwExFCyhFMsGDAJi6G8CYihYAoBI6wzWIPa+PW1JQOxFRBTpLlGDNYiFrwmIhWjrJjEB8QUGUyxDfxMQQ8Eip1i+wSAghv4mIIaCRQLkBIzmpnL49S/WIPa+ZQ3iQ7tAT9JDRQ3WIBZOZwSxEC1QDRIDDKZYhv4mIIaCBUixYoJBQAz9TUAMBfMIiO4qZJ3BGsTet0nUIHoQroB6kMC6C5dtXv3R6VAF+NyEfJwk5gtTcyqv/93lhanuEufufrx73GzfbgLt2AinYmzmBojx5Tw08PeFRgIidIcPQPqgLJut+8JLw81yAsRH1OgLTkCEy88nIN0lt+4+uKOa6fcZhMMLapYDIL7B6AQlIMKlFQIQfekc0q6UAQkFBgERgtGZhQIkh/okVUBCw6F9wwgiBCU0ICnXJ6kBEgMMRhAhGLEiyHA4KdUnqQASEwwCkjggKdUnaEAQYBAQQ0C22uXe0fs/WRg282KOLuSRgCDhcD8a0yyOb13b87IIep00vjvU/fl4kt2qZrHdHu8jQUE8P0EAggRjFb1Xx/Bdt+ArA+QU3FbtL99/d/VdJsRf7PokJiBlgNGtiloBWc+/lrQrBiBlgUFAesEEn3aFPt8VGhAkHD6+nLI5i6g8gvSFQdcnIdOuUIAgwfBXZ0wl2QTkVXUKrE98A1I+GEyxJmtzdDTxvS3sC5B6wCAgos2rUkDxAQgSjv4vTokc580ooxQrZI4+pycaFNe5uwCCBCNOnTFRoiu1H+LnroM8KFyJhX6jL9P6xAYQgnE92HOyYIB0rCNBQUcTm7mbAFIzGPr9+0a1ByGiRj9OBQekDwri6Ia+fk6gSAFBwoGrM05WU8y5RwOkA8U1R5+rQab+HQ2KZO5zgMRcHGNa+jk3ZedFxNyjA8L6RKkpUDYBglgc/WVcGxinm8d2LPtpZZOj+7lyumnXEBANhlLLxdGttzDH/72ctLX3GvrGAIkgQ7kkqYe9xNMt0WnX8CbRBwS5OGqqM6ZWSBKAsD55mXZpQJBglPo8w/YGmxQgrE9s3einHbrOQKaSmxRMDhA+P/Gz2E16QYIRe9vWRJf12EybxLWvuT4JrTTrjHmFk40gZ7YYwcdWdCHfvvcj7x8EmHdPOAtk1EDXWCaqZgFICmnXagzg810mjt1kiwZDjyv08RAfOnV9ZAVICqCgt4VtnY8EI/U6Y0rTLAHpJsT6ZB4X1hnzGhULiJ4Y8mn8SdaVbn2CjBo51RlFA5JC2pVafYIEI9YxdLe4IG+ddYo1Nk0dUao9Vl/5uSn5spdbFgdIjfUJ6wz5gje1LBaQWuoTZDpVSp1RRQ0yNUl0IR/i+QkSjJy3bRlBJhQoYVuYYJgucTf7olOsTdL4+HkGW9ltHzSyzrBV3K1dlYDkVp8gowb6jUa35e3eulpAcnh+ggSjpjqj+iJdch9JqT4hGBKPxbGpPoL0ZUbvdq3qk8uXD9x/jsxu8dSwbWuqDAEZUQwJytx3sUwdLLE/qTPyOoYumZcPGwIyoSIClNiAMGpMY0RABLeZmPVJLEAIhsDxJ5855Z9EgVjRJDQgBEPi7Zc2BMRMr+Dvn4QDJM7X0A3lTN6cgFi6KNSx+hCAMGpYOpkplr1wXUvf9YlPQAiGu38ZQdw19Jp2+QCEYHhw6roLAuJPSy+guAJCODw6lCmWXzF9pF22gBCMML5kBAmj66pXm2P1poAQjIAOZAQJK67u3fT5iRSQ2o+hh/fcyRUYQSIpLQVFAgijRiSnEZB4QkvrkylACEZ8fzGCxNd8Mu0aA4RgAJzEbV6c6N2Vx9Ku4W8UatucvoaOV9XvCBhB/Opp1Vv/2EoHCKOGlZTeGxEQ75Lad6iPrWxducKIYS+h95YExLuk7LAkBQhISd7kXLwrQEC8S8oOS1KAgJTkTc7FuwIExLuk7LAkBQhISd7kXLwrQEC8S8oOS1KAgJTkTc7FuwIExLuk7LAkBf4PhsfbfQQDCkgAAAAASUVORK5CYII=;" vertex="1" parent="m7qQhjfFafRTeIDe8pk5-27">
          <mxGeometry width="90" height="90" as="geometry" />
        </mxCell>
        <mxCell id="m7qQhjfFafRTeIDe8pk5-26" value="POD" style="text;html=1;align=center;verticalAlign=middle;resizable=0;points=[];autosize=1;strokeColor=none;fillColor=none;" vertex="1" parent="m7qQhjfFafRTeIDe8pk5-27">
          <mxGeometry x="20" y="80" width="50" height="30" as="geometry" />
        </mxCell>
        <mxCell id="m7qQhjfFafRTeIDe8pk5-31" value="" style="group" vertex="1" connectable="0" parent="1">
          <mxGeometry x="840" y="420" width="90" height="110" as="geometry" />
        </mxCell>
        <mxCell id="m7qQhjfFafRTeIDe8pk5-32" value="" style="shape=image;verticalLabelPosition=bottom;labelBackgroundColor=default;verticalAlign=top;aspect=fixed;imageAspect=0;image=data:image/png,iVBORw0KGgoAAAANSUhEUgAAAMgAAADICAYAAACtWK6eAAAAAXNSR0IArs4c6QAAD0lJREFUeF7tnT2THUcVhnt2VRQSQl6XZFGWMFbgAAgw/ALthsA/IKEIlENmR9JGIjO5IvMfwKHu/gJbBEARSeWyKbChFiSjD+/eofrundXsaO7M6c+3P95NXC6d7ul+Tz9zzunpmdso/lEBKrBRgYbaUAEqsFkBAsLVQQUmFCAgXB5UgIBwDVABOwUYQex0Y6tKFCAglTia07RTgIDY6cZWlShAQCpxNKdppwABsdMtSKsf/uGrO7rjP//8W6v/8g+vAAHB+0B9/6Onu03b3u8PpWnbfYKCdw4BAfpgDcZtpdTu2DA0JIwoQAcppQgIQP85MIZDYjQBOGl9SQISWXtdZ7RNo6OG8R9BMZbMuQEBcZZQ1oFp1JjqlaDINPdhRUB8qDjRh08whkX8cmtr8defnl8EnkLV3ROQgO7/wR//p3emRgtwX5dlNPGl5Hg/BCSAvi51hu1wCIqtctPtCIhHXUOlUyZDJCgmas3bEpB5jWYtUgBjWJ/wIeOs20QGBEQk02YjRDolHTKjiVSpzXYExFLDseMhll0Fb0ZQ7CUmIIbapZZOGQx/0bTtAVMvA8V41EQuVsZgnJkko4nc59qSEUSgV8p1hmD4oyYERaYcAZnQqZSoMbUUCAqfg8huFT2rGsAYbgvr/2d98upSYQRJCIzu/Q/b077Gd4JBA0YTArJxDYHrjEXbNPv9g4fI8RCUl8uk+ggCTqdeAaNPMBKS1Q4OX/utdxcLDIbR4kOCUjskVUYQ5IJTSi3+8rMLezb1AnLctYJSFSDIBabBGNYZNpDoyLe1XO6ykLdRz7xNFYCA0ykvYAxdC4bdKEU0X5bptCgaEDAYURYREpQa0q5iAUEuHF/plMl9FDnfkkEpDhDwMfQg6ZQUlO7TpaxPpIrN2xUDCDidgoKRWH1S1LH67AEBgxGlzpi/z41bMO2yVa6QJ+nIBYCoM2zdjdQp9/okywgCjhpJpVNSaNaQ3Az9na5N48kVlKwAAYOh2qbZy/1LhuhoktvXILMBJMZXCku7+01FFzQoubx7kjwgSEfmVGdIU62UdrxySLuSBQScTmVZZzhCwvpkRMDkAAGDAd221XNH1jjIaJ1qNEkKEKSDXI6h2965N70chV4sSD+g5z70ZRKAIB2CrjOm5o5eLEi/oOfegQIFBJxOQesMk7kjFwsSEn3zQn8NEgKIyeLwkb68EjaB71rbzh0JidYPCQpy7tEBQQqdcjolvREgF0uNoEQDpOZj6CHmjgSlptd+gwNim1JI76gzdtnUGZbzheboyGyg+8he6CfywQABgwF/ntG0rf4t9KA/4Hm60wKsqUpPu4IA8ubvP//1zpWdDyzviq7NoFEDfVcNfUdN9XzXPw6f/ubfv7j8O9fFE+U5SPPbP93/zrU3brx+5bUbvgc80R8UDHTE7OuCrE8Ar/0uHn3x+NHzF8dvH9+6ZvW9sak1GiSCaEAa1a7Si2vfe/Pg2zsX9TmfYH/IY+gpgTGERP8/KqLEiKR//9eTg8fPvl6vrWaRJSCd00KAgrxT6nkhj+BL7zZojUKAchaM00osb0D0NC5euvjJ5as7D7554fwvpQ7eYAdNp0I43VGP2eYlgPLP/zx9+Pjp88Pj4/bHr0448wjSn9DVa1cfWtYnUDBSTadm6egZIEFxeO13XWccTdxYCwLEJu1COrYEMIb1CfLVV5MIPJ5Ojd0SCgSkm+bb73z3w4m0y/pr6CZ31k22Js70cb2YfSBvOnqeU9rqdOrwyTODXdCCAdlQn0DTqZLBGEKYEigajKcvjg6ev5hKpyqLIMP6ZOeNnV+h3qwrLZ0yiUhIUPQN6eGXT26Yg1HQLpbUWcv33g3yfGbq+jWDMaxPYj87OXfvszutUvpojsNf4SlWX5nYgNSUTklXYIxo4gcMRhCpT43tQhxDNx5E4g1CgHLu3qe7Sm3tukeNM7Ev/weF0rUQOoIwnZJ64tTO27F6v1GDgBh7knWGV8nOdOYSTcKBwRTLi8dZZ3iRcdWJCSjhwSAgTp5lOuUk32TjOVDiwbHCljWIiasJhola9rZjr77GBYMRxNh7ORxDN55U4g00KH/7/FD53ZkymTQjiEitc3c/3r3w2qUPPB2rF12zdqPpY+ix1CEgIqU1IMtm6742djhWL7oWjZTgGHoslQiISOk+IF2DEG8zigZTsJH8GHosEQiISOkxQLqGM8fqRf3XbmR+DD2WYgREpPQUIF3adf7CNw48vPYrGk8pRvbH0GMpQEBESs8B0nXC+kQkpzZKqM6YGjMBEXlUCgjrk3k506szCMhKAZfDiqaA6Ou1qlnceOf6I6ZdJwsw3TqDgEAA6addl16/eLi9vT3yWZn5O27uFl89e/HJl4+fP7B/qw+pAFMskfo2EWTYcY31yaMvHn+IBKNRat/tKTwBiQZITfUJus7QYBzdun5Ha75977NW5ORRIwIi0s5HBOlfqNT6BF1n9MHo9CYgoiUev0iXDKugtAu6bavBUGq5OLr11mKoOwGRrETALpZwWCuznI+tpJROjWlOQIQrMfY2r3BYZ8xyOraSYjpFQNa/D2Kz+HIARM/L49fqbWSabYM+hj5WZ0wNmhFk1qUnBrkA0k0nwfoEXmd0O1NCl6/MCIhQrdwA6aaVQn2Sep3BCKJfn+/9BJuQiTNmuQKiJ4HaFs6lziAglQPST7tiHKtHH0M3rTMICAE5swYC1idZ1hkEhICMrgGf9UnOdQYBISAb14BrfVJCnUFACMjsvoROu0yO1aOPofusMwgIAZkFxOT5CTKdigVGpwefgwiXTs7bvMIpnjEbq0+QYOjv3DaqPbB52GczfwJiqFptgPSfn/z3a3XT7NddDcWdMY8dNfrDYQQR+rJGQDppmstXhCr5NUOCwQhi6EsCYiiYg3kKYBAQQwcSEEPBrMwxdQZ3sbiLZbVcY6ZYKUUN1iAWy4URxEI0QZNUwWCKJXBe34SAGAqW8M6UyUy4iyVUi4AIhRKAoU1iP8+wHT0BESpHQIRCTZilnk6NDZ2ACP1OQIRCjZjlCAZrEEN/ExBDwdbmSDj0L9tu+t6VdDaMIEKlCIhQqIEZApBz9z7dVWprV39Xt1HLvbEPwklnQ0CEShEQoVBgQIa/h05AhH6r+aMNQok2mrmcxYoVQYZgdJMhIELvExChUGNFtsNhxdCAbAKDgBj6m4AYCtYzTzGCnBTg+pNG6vbUzBhBhH4nIEKhMoggc1GjPwUCIvQ7AREKlTAgJmAwxTL0NwExFCyhFMsGDAJi6G8CYihYAoBI6wzWIPa+PW1JQOxFRBTpLlGDNYiFrwmIhWjrJjEB8QUGUyxDfxMQQ8Eip1i+wSAghv4mIIaCRQLkBIzmpnL49S/WIPa+ZQ3iQ7tAT9JDRQ3WIBZOZwSxEC1QDRIDDKZYhv4mIIaCBUixYoJBQAz9TUAMBfMIiO4qZJ3BGsTet0nUIHoQroB6kMC6C5dtXv3R6VAF+NyEfJwk5gtTcyqv/93lhanuEufufrx73GzfbgLt2AinYmzmBojx5Tw08PeFRgIidIcPQPqgLJut+8JLw81yAsRH1OgLTkCEy88nIN0lt+4+uKOa6fcZhMMLapYDIL7B6AQlIMKlFQIQfekc0q6UAQkFBgERgtGZhQIkh/okVUBCw6F9wwgiBCU0ICnXJ6kBEgMMRhAhGLEiyHA4KdUnqQASEwwCkjggKdUnaEAQYBAQQ0C22uXe0fs/WRg282KOLuSRgCDhcD8a0yyOb13b87IIep00vjvU/fl4kt2qZrHdHu8jQUE8P0EAggRjFb1Xx/Bdt+ArA+QU3FbtL99/d/VdJsRf7PokJiBlgNGtiloBWc+/lrQrBiBlgUFAesEEn3aFPt8VGhAkHD6+nLI5i6g8gvSFQdcnIdOuUIAgwfBXZ0wl2QTkVXUKrE98A1I+GEyxJmtzdDTxvS3sC5B6wCAgos2rUkDxAQgSjv4vTokc580ooxQrZI4+pycaFNe5uwCCBCNOnTFRoiu1H+LnroM8KFyJhX6jL9P6xAYQgnE92HOyYIB0rCNBQUcTm7mbAFIzGPr9+0a1ByGiRj9OBQekDwri6Ia+fk6gSAFBwoGrM05WU8y5RwOkA8U1R5+rQab+HQ2KZO5zgMRcHGNa+jk3ZedFxNyjA8L6RKkpUDYBglgc/WVcGxinm8d2LPtpZZOj+7lyumnXEBANhlLLxdGttzDH/72ctLX3GvrGAIkgQ7kkqYe9xNMt0WnX8CbRBwS5OGqqM6ZWSBKAsD55mXZpQJBglPo8w/YGmxQgrE9s3einHbrOQKaSmxRMDhA+P/Gz2E16QYIRe9vWRJf12EybxLWvuT4JrTTrjHmFk40gZ7YYwcdWdCHfvvcj7x8EmHdPOAtk1EDXWCaqZgFICmnXagzg810mjt1kiwZDjyv08RAfOnV9ZAVICqCgt4VtnY8EI/U6Y0rTLAHpJsT6ZB4X1hnzGhULiJ4Y8mn8SdaVbn2CjBo51RlFA5JC2pVafYIEI9YxdLe4IG+ddYo1Nk0dUao9Vl/5uSn5spdbFgdIjfUJ6wz5gje1LBaQWuoTZDpVSp1RRQ0yNUl0IR/i+QkSjJy3bRlBJhQoYVuYYJgucTf7olOsTdL4+HkGW9ltHzSyzrBV3K1dlYDkVp8gowb6jUa35e3eulpAcnh+ggSjpjqj+iJdch9JqT4hGBKPxbGpPoL0ZUbvdq3qk8uXD9x/jsxu8dSwbWuqDAEZUQwJytx3sUwdLLE/qTPyOoYumZcPGwIyoSIClNiAMGpMY0RABLeZmPVJLEAIhsDxJ5855Z9EgVjRJDQgBEPi7Zc2BMRMr+Dvn4QDJM7X0A3lTN6cgFi6KNSx+hCAMGpYOpkplr1wXUvf9YlPQAiGu38ZQdw19Jp2+QCEYHhw6roLAuJPSy+guAJCODw6lCmWXzF9pF22gBCMML5kBAmj66pXm2P1poAQjIAOZAQJK67u3fT5iRSQ2o+hh/fcyRUYQSIpLQVFAgijRiSnEZB4QkvrkylACEZ8fzGCxNd8Mu0aA4RgAJzEbV6c6N2Vx9Ku4W8UatucvoaOV9XvCBhB/Opp1Vv/2EoHCKOGlZTeGxEQ75Lad6iPrWxducKIYS+h95YExLuk7LAkBQhISd7kXLwrQEC8S8oOS1KAgJTkTc7FuwIExLuk7LAkBQhISd7kXLwrQEC8S8oOS1KAgJTkTc7FuwIExLuk7LAkBf4PhsfbfQQDCkgAAAAASUVORK5CYII=;" vertex="1" parent="m7qQhjfFafRTeIDe8pk5-31">
          <mxGeometry width="90" height="90" as="geometry" />
        </mxCell>
        <mxCell id="m7qQhjfFafRTeIDe8pk5-33" value="POD" style="text;html=1;align=center;verticalAlign=middle;resizable=0;points=[];autosize=1;strokeColor=none;fillColor=none;" vertex="1" parent="m7qQhjfFafRTeIDe8pk5-31">
          <mxGeometry x="20" y="80" width="50" height="30" as="geometry" />
        </mxCell>
        <mxCell id="m7qQhjfFafRTeIDe8pk5-34" value="" style="group" vertex="1" connectable="0" parent="1">
          <mxGeometry x="840" y="273.43" width="90" height="110" as="geometry" />
        </mxCell>
        <mxCell id="m7qQhjfFafRTeIDe8pk5-35" value="" style="shape=image;verticalLabelPosition=bottom;labelBackgroundColor=default;verticalAlign=top;aspect=fixed;imageAspect=0;image=data:image/png,iVBORw0KGgoAAAANSUhEUgAAAMgAAADICAYAAACtWK6eAAAAAXNSR0IArs4c6QAAD0lJREFUeF7tnT2THUcVhnt2VRQSQl6XZFGWMFbgAAgw/ALthsA/IKEIlENmR9JGIjO5IvMfwKHu/gJbBEARSeWyKbChFiSjD+/eofrundXsaO7M6c+3P95NXC6d7ul+Tz9zzunpmdso/lEBKrBRgYbaUAEqsFkBAsLVQQUmFCAgXB5UgIBwDVABOwUYQex0Y6tKFCAglTia07RTgIDY6cZWlShAQCpxNKdppwABsdMtSKsf/uGrO7rjP//8W6v/8g+vAAHB+0B9/6Onu03b3u8PpWnbfYKCdw4BAfpgDcZtpdTu2DA0JIwoQAcppQgIQP85MIZDYjQBOGl9SQISWXtdZ7RNo6OG8R9BMZbMuQEBcZZQ1oFp1JjqlaDINPdhRUB8qDjRh08whkX8cmtr8defnl8EnkLV3ROQgO7/wR//p3emRgtwX5dlNPGl5Hg/BCSAvi51hu1wCIqtctPtCIhHXUOlUyZDJCgmas3bEpB5jWYtUgBjWJ/wIeOs20QGBEQk02YjRDolHTKjiVSpzXYExFLDseMhll0Fb0ZQ7CUmIIbapZZOGQx/0bTtAVMvA8V41EQuVsZgnJkko4nc59qSEUSgV8p1hmD4oyYERaYcAZnQqZSoMbUUCAqfg8huFT2rGsAYbgvr/2d98upSYQRJCIzu/Q/b077Gd4JBA0YTArJxDYHrjEXbNPv9g4fI8RCUl8uk+ggCTqdeAaNPMBKS1Q4OX/utdxcLDIbR4kOCUjskVUYQ5IJTSi3+8rMLezb1AnLctYJSFSDIBabBGNYZNpDoyLe1XO6ykLdRz7xNFYCA0ykvYAxdC4bdKEU0X5bptCgaEDAYURYREpQa0q5iAUEuHF/plMl9FDnfkkEpDhDwMfQg6ZQUlO7TpaxPpIrN2xUDCDidgoKRWH1S1LH67AEBgxGlzpi/z41bMO2yVa6QJ+nIBYCoM2zdjdQp9/okywgCjhpJpVNSaNaQ3Az9na5N48kVlKwAAYOh2qbZy/1LhuhoktvXILMBJMZXCku7+01FFzQoubx7kjwgSEfmVGdIU62UdrxySLuSBQScTmVZZzhCwvpkRMDkAAGDAd221XNH1jjIaJ1qNEkKEKSDXI6h2965N70chV4sSD+g5z70ZRKAIB2CrjOm5o5eLEi/oOfegQIFBJxOQesMk7kjFwsSEn3zQn8NEgKIyeLwkb68EjaB71rbzh0JidYPCQpy7tEBQQqdcjolvREgF0uNoEQDpOZj6CHmjgSlptd+gwNim1JI76gzdtnUGZbzheboyGyg+8he6CfywQABgwF/ntG0rf4t9KA/4Hm60wKsqUpPu4IA8ubvP//1zpWdDyzviq7NoFEDfVcNfUdN9XzXPw6f/ubfv7j8O9fFE+U5SPPbP93/zrU3brx+5bUbvgc80R8UDHTE7OuCrE8Ar/0uHn3x+NHzF8dvH9+6ZvW9sak1GiSCaEAa1a7Si2vfe/Pg2zsX9TmfYH/IY+gpgTGERP8/KqLEiKR//9eTg8fPvl6vrWaRJSCd00KAgrxT6nkhj+BL7zZojUKAchaM00osb0D0NC5euvjJ5as7D7554fwvpQ7eYAdNp0I43VGP2eYlgPLP/zx9+Pjp88Pj4/bHr0448wjSn9DVa1cfWtYnUDBSTadm6egZIEFxeO13XWccTdxYCwLEJu1COrYEMIb1CfLVV5MIPJ5Ojd0SCgSkm+bb73z3w4m0y/pr6CZ31k22Js70cb2YfSBvOnqeU9rqdOrwyTODXdCCAdlQn0DTqZLBGEKYEigajKcvjg6ev5hKpyqLIMP6ZOeNnV+h3qwrLZ0yiUhIUPQN6eGXT26Yg1HQLpbUWcv33g3yfGbq+jWDMaxPYj87OXfvszutUvpojsNf4SlWX5nYgNSUTklXYIxo4gcMRhCpT43tQhxDNx5E4g1CgHLu3qe7Sm3tukeNM7Ev/weF0rUQOoIwnZJ64tTO27F6v1GDgBh7knWGV8nOdOYSTcKBwRTLi8dZZ3iRcdWJCSjhwSAgTp5lOuUk32TjOVDiwbHCljWIiasJhola9rZjr77GBYMRxNh7ORxDN55U4g00KH/7/FD53ZkymTQjiEitc3c/3r3w2qUPPB2rF12zdqPpY+ix1CEgIqU1IMtm6742djhWL7oWjZTgGHoslQiISOk+IF2DEG8zigZTsJH8GHosEQiISOkxQLqGM8fqRf3XbmR+DD2WYgREpPQUIF3adf7CNw48vPYrGk8pRvbH0GMpQEBESs8B0nXC+kQkpzZKqM6YGjMBEXlUCgjrk3k506szCMhKAZfDiqaA6Ou1qlnceOf6I6ZdJwsw3TqDgEAA6addl16/eLi9vT3yWZn5O27uFl89e/HJl4+fP7B/qw+pAFMskfo2EWTYcY31yaMvHn+IBKNRat/tKTwBiQZITfUJus7QYBzdun5Ha75977NW5ORRIwIi0s5HBOlfqNT6BF1n9MHo9CYgoiUev0iXDKugtAu6bavBUGq5OLr11mKoOwGRrETALpZwWCuznI+tpJROjWlOQIQrMfY2r3BYZ8xyOraSYjpFQNa/D2Kz+HIARM/L49fqbWSabYM+hj5WZ0wNmhFk1qUnBrkA0k0nwfoEXmd0O1NCl6/MCIhQrdwA6aaVQn2Sep3BCKJfn+/9BJuQiTNmuQKiJ4HaFs6lziAglQPST7tiHKtHH0M3rTMICAE5swYC1idZ1hkEhICMrgGf9UnOdQYBISAb14BrfVJCnUFACMjsvoROu0yO1aOPofusMwgIAZkFxOT5CTKdigVGpwefgwiXTs7bvMIpnjEbq0+QYOjv3DaqPbB52GczfwJiqFptgPSfn/z3a3XT7NddDcWdMY8dNfrDYQQR+rJGQDppmstXhCr5NUOCwQhi6EsCYiiYg3kKYBAQQwcSEEPBrMwxdQZ3sbiLZbVcY6ZYKUUN1iAWy4URxEI0QZNUwWCKJXBe34SAGAqW8M6UyUy4iyVUi4AIhRKAoU1iP8+wHT0BESpHQIRCTZilnk6NDZ2ACP1OQIRCjZjlCAZrEEN/ExBDwdbmSDj0L9tu+t6VdDaMIEKlCIhQqIEZApBz9z7dVWprV39Xt1HLvbEPwklnQ0CEShEQoVBgQIa/h05AhH6r+aMNQok2mrmcxYoVQYZgdJMhIELvExChUGNFtsNhxdCAbAKDgBj6m4AYCtYzTzGCnBTg+pNG6vbUzBhBhH4nIEKhMoggc1GjPwUCIvQ7AREKlTAgJmAwxTL0NwExFCyhFMsGDAJi6G8CYihYAoBI6wzWIPa+PW1JQOxFRBTpLlGDNYiFrwmIhWjrJjEB8QUGUyxDfxMQQ8Eip1i+wSAghv4mIIaCRQLkBIzmpnL49S/WIPa+ZQ3iQ7tAT9JDRQ3WIBZOZwSxEC1QDRIDDKZYhv4mIIaCBUixYoJBQAz9TUAMBfMIiO4qZJ3BGsTet0nUIHoQroB6kMC6C5dtXv3R6VAF+NyEfJwk5gtTcyqv/93lhanuEufufrx73GzfbgLt2AinYmzmBojx5Tw08PeFRgIidIcPQPqgLJut+8JLw81yAsRH1OgLTkCEy88nIN0lt+4+uKOa6fcZhMMLapYDIL7B6AQlIMKlFQIQfekc0q6UAQkFBgERgtGZhQIkh/okVUBCw6F9wwgiBCU0ICnXJ6kBEgMMRhAhGLEiyHA4KdUnqQASEwwCkjggKdUnaEAQYBAQQ0C22uXe0fs/WRg282KOLuSRgCDhcD8a0yyOb13b87IIep00vjvU/fl4kt2qZrHdHu8jQUE8P0EAggRjFb1Xx/Bdt+ArA+QU3FbtL99/d/VdJsRf7PokJiBlgNGtiloBWc+/lrQrBiBlgUFAesEEn3aFPt8VGhAkHD6+nLI5i6g8gvSFQdcnIdOuUIAgwfBXZ0wl2QTkVXUKrE98A1I+GEyxJmtzdDTxvS3sC5B6wCAgos2rUkDxAQgSjv4vTokc580ooxQrZI4+pycaFNe5uwCCBCNOnTFRoiu1H+LnroM8KFyJhX6jL9P6xAYQgnE92HOyYIB0rCNBQUcTm7mbAFIzGPr9+0a1ByGiRj9OBQekDwri6Ia+fk6gSAFBwoGrM05WU8y5RwOkA8U1R5+rQab+HQ2KZO5zgMRcHGNa+jk3ZedFxNyjA8L6RKkpUDYBglgc/WVcGxinm8d2LPtpZZOj+7lyumnXEBANhlLLxdGttzDH/72ctLX3GvrGAIkgQ7kkqYe9xNMt0WnX8CbRBwS5OGqqM6ZWSBKAsD55mXZpQJBglPo8w/YGmxQgrE9s3einHbrOQKaSmxRMDhA+P/Gz2E16QYIRe9vWRJf12EybxLWvuT4JrTTrjHmFk40gZ7YYwcdWdCHfvvcj7x8EmHdPOAtk1EDXWCaqZgFICmnXagzg810mjt1kiwZDjyv08RAfOnV9ZAVICqCgt4VtnY8EI/U6Y0rTLAHpJsT6ZB4X1hnzGhULiJ4Y8mn8SdaVbn2CjBo51RlFA5JC2pVafYIEI9YxdLe4IG+ddYo1Nk0dUao9Vl/5uSn5spdbFgdIjfUJ6wz5gje1LBaQWuoTZDpVSp1RRQ0yNUl0IR/i+QkSjJy3bRlBJhQoYVuYYJgucTf7olOsTdL4+HkGW9ltHzSyzrBV3K1dlYDkVp8gowb6jUa35e3eulpAcnh+ggSjpjqj+iJdch9JqT4hGBKPxbGpPoL0ZUbvdq3qk8uXD9x/jsxu8dSwbWuqDAEZUQwJytx3sUwdLLE/qTPyOoYumZcPGwIyoSIClNiAMGpMY0RABLeZmPVJLEAIhsDxJ5855Z9EgVjRJDQgBEPi7Zc2BMRMr+Dvn4QDJM7X0A3lTN6cgFi6KNSx+hCAMGpYOpkplr1wXUvf9YlPQAiGu38ZQdw19Jp2+QCEYHhw6roLAuJPSy+guAJCODw6lCmWXzF9pF22gBCMML5kBAmj66pXm2P1poAQjIAOZAQJK67u3fT5iRSQ2o+hh/fcyRUYQSIpLQVFAgijRiSnEZB4QkvrkylACEZ8fzGCxNd8Mu0aA4RgAJzEbV6c6N2Vx9Ku4W8UatucvoaOV9XvCBhB/Opp1Vv/2EoHCKOGlZTeGxEQ75Lad6iPrWxducKIYS+h95YExLuk7LAkBQhISd7kXLwrQEC8S8oOS1KAgJTkTc7FuwIExLuk7LAkBQhISd7kXLwrQEC8S8oOS1KAgJTkTc7FuwIExLuk7LAkBf4PhsfbfQQDCkgAAAAASUVORK5CYII=;" vertex="1" parent="m7qQhjfFafRTeIDe8pk5-34">
          <mxGeometry width="90" height="90" as="geometry" />
        </mxCell>
        <mxCell id="m7qQhjfFafRTeIDe8pk5-36" value="POD" style="text;html=1;align=center;verticalAlign=middle;resizable=0;points=[];autosize=1;strokeColor=none;fillColor=none;" vertex="1" parent="m7qQhjfFafRTeIDe8pk5-34">
          <mxGeometry x="20" y="80" width="50" height="30" as="geometry" />
        </mxCell>
        <mxCell id="m7qQhjfFafRTeIDe8pk5-37" value="&lt;b&gt;...&lt;/b&gt;" style="text;html=1;align=center;verticalAlign=middle;resizable=0;points=[];autosize=1;strokeColor=none;fillColor=none;" vertex="1" parent="1">
          <mxGeometry x="870" y="380.43" width="30" height="30" as="geometry" />
        </mxCell>
        <mxCell id="m7qQhjfFafRTeIDe8pk5-59" style="edgeStyle=orthogonalEdgeStyle;rounded=0;orthogonalLoop=1;jettySize=auto;html=1;exitX=1;exitY=0.5;exitDx=0;exitDy=0;entryX=0;entryY=0.5;entryDx=0;entryDy=0;" edge="1" parent="1" source="m7qQhjfFafRTeIDe8pk5-46" target="m7qQhjfFafRTeIDe8pk5-55">
          <mxGeometry relative="1" as="geometry">
            <Array as="points">
              <mxPoint x="520" y="444" />
              <mxPoint x="520" y="319" />
            </Array>
          </mxGeometry>
        </mxCell>
        <mxCell id="m7qQhjfFafRTeIDe8pk5-46" value="模型快照" style="shape=image;verticalLabelPosition=bottom;labelBackgroundColor=default;verticalAlign=top;aspect=fixed;imageAspect=0;image=data:image/png,iVBORw0KGgoAAAANSUhEUgAAAMgAAADICAYAAACtWK6eAAAAAXNSR0IArs4c6QAAC/xJREFUeF7tnQ2S3LYOhOWTOTmZ45MlPllSjIderiyNQADEH3urXlXyQlJgoz+BlDTSlwN/UAAK3CrwBdpAAShwrwAAgTugwBsFAAjsAQUACDwABXgKoILwdEOvTRQAIJskGtPkKQBAeLqh1yYKAJBNEo1p8hQAIDzd0GsTBQDIJonGNHkKABCebui1iQIAZJNEY5o8BQAITzfNXn+9Bvt6M+j34zj+0TwgxqIrAEDoWmm27FB8mxi0QQJYJgTTaApANFSkj9HAmIHiamSAQtdb3BKAiCUkDaABxvlAAIUkvawRAJHp99R7BRgA5Ul1xf8OQBTFHIayAAOgrMndp1EBiK7IHmAAFN0cApAFekYAA6AsSCwqiEzUiGAAFFlOUUEU9MsABkBRSDQqyJyIGcEAKHM5RgVh6FUBDIDCSDwqyHvRKoIBUCZAASDXYu0ABkAhgAJAPkT64ziO9j/ps1IE2UM3wSMsQ3oAyHFwnqwN7XCl4ADKcRw7AwIwaCRtDcqOgAAMGhjYo2xWQQAGD4ytQdmhggAMHTC2BKUyIDteql2DwvtRS+9RKgICMDww+fliiXK/ma8ECMDwAePqqA2UvrSNExUjkgqAAAxG4o26pAclMyAAw8jlCodJC0pGQACGgmOdhkgHSiZAAIaTqxccNg0oGQABGAscGmTI8KBEBgRgBHGxQRj98nC4dxBHBARgGDgy6CHC3UuJBAjACOpah7DCgBIBEIDh4MAkh3QHxRMQgJHEpQHCdAPFGhD8rDWA2xKHYA6KFSB45DyxKwOGbgbKakAARkB3FQppOSirAAEYhVyYYCrLQNEGBGAkcFPhENVB0QQEV6UKOy/Z1NQeYdEABGAkc88m4apUEykg7bLt35sIjmnmVEDkcUlnwJHTMLtF3SrJn9xJSwBplaNBgj8oEF0B9p6ECwiqR3RLIL6zAiyvszq99h2oHjBhJgVYVQSAZEoxYpUoAEAk6qFveQVYm3VuBfm3vJyYYDUFTAHBFaxq9qk/H1NAcPe8vqGqzdB0DwJAqtmn/nzazcLpt6Zw9yBNTuxD6puqygxZy6s2eQkgqCJV7FN/HqzqIQWk9Qck9c2VfYZsODQAASTZ7VM7ftbGfJREssQax0ElqW20jLMTVY4+YS1A2njt2axveMI3o5dKxSyuGisqyDgmQCnltzSTUQVjRQU5KwlQ0ngrdaBLwLAApB8DoKT2X9jgl4JhCQhACeuxlIGZgOEBCEBJ6ccwQZuC4QkIQAnjuRSBuIARARCAksKfbkG6ghEJEIDi5sGQBw4BRkRAAEpIv5oFFQqMyIAAFDNPhjhQSDAyADJmD896hfCyahChwcgGSI8XoKh61GWwFGBkBQSguHhafNAGRfvr348RD2g1gObTvFYxY+nloTTvmGnByF5BzunC0otn4FW90oNRDRAsvVZZfW7cMmBUBaTPC08Qzxlb2rocGNUBAShSy9P6lwVjF0AACs3os63Kg7ESkP7dkKvvh/Q3202/4W42gzftsfSSCekJxpOvlnhK8zLvrPma2G1SSyb24IPZWGW2yt/b8+beTK7U49QAZGYCd1ZRnxjRkxqxEw+VsplXXppYLTc9P7PiqcUtBUT7W4VqE5tUFKB8FswrDx0MjddHqcxBCsiq74SoTG4SEs3kMA4doouX7qu0Z7+0WmOTbnH32ithu1UUL51XgTGebUSQSCqI5ecPvBJYHRQvXS3AGCFhv4aUC4hF9bhac3gltBooXjpag9E9xK4i2QDpE/ZKcHZQvHTzAkNcRbiArNqcz+5UvRKeDRQvnSKAIaoiXEAs9x8UaLwMEB0UL10igQFABoK8DBENFC8dWira/vRr0M9gTBeE6Q4vM0ZZYt1VFy+DeIPiNe8ORrvBF/WPtVGvCsi4mfd43ssaFIDxjKUpINqPmDxPT9bC6ylUyfNElBl7gWF9AqBo8dSGpRW3grRgoi+z7u6j9OXAk6Da/13z3hEr2QoTyghGnzbL66xOryNmqyKjP7wqinStDjB4lLN1kwAiTTZvqrq9PEGhno0zxKibFf3R2D5ndxzmoLl00JeGPiL7LEM/xGXL8ZeX4z97XFzoAVLhFU7dpDv7OawWnQYgFSrJefmV7g2ASlarBEaTRHzS0wKkBbP6io2SB8jDiMUlH8m/YTUwWvVt+RP/nFsTkJ7mfvaNfNNoxpKVQQEYD05YAQhAmcHPpy3AIOq+EpAxhCobeZV1LTE3K5pVykPTR20pdSe2FSBjVcHSa4X1348JMJiaWwMCUJiJYnSrdtHEpGKcdfYCBKAwHE/sUm1/4QJG19obEIBCdD2hGcAgiDTbJAogAGU2cx/tAQZfu8ee0QCpCkqbl/bdeYDxaG95g6iAAJT73AIMue/JI0QHBKDUXkqFf0ohCyA7g1KxYoQHI9pVLHLJezWsdOOr3Q3+cbFHqQbG3Txnc2/aPlsFOYtTCZQ2t/4Eqsbr/02N9OZgyx8HWTnR7IBUXHqtzLfl2KnByL7Eukt0tYpiaWitY5UAoyogqChaNp8fpxQY1QEBKPMG5/YoCcZKQPpTpO39rO2vXaEZ/zxeRoClF9f+9/08wOjeOke1zFOam/RZE3q8zqbaz4H1bf88ojUYM5e71e+vaACi8QI59Yk95BmgPINwdZZWeRHCxKFnT7p9aDU/SQHRgGPUS21ixCQAlGehrCtGi4gLhrqXpICs+pAOQHk27uoWvVqIX51DDHRmKUUc8v/frLcXx7H/JIBoUP4UOEB5Ukj/v1trvgIMtUoiAWRV9bhKuXXSdlx6WWu8GozRR+zXj3IBsageEUDRWg/rn+d1RvTYX1iC0VViL7WyAaJ+lWLCZ14nhYkQyU13AUNcRbiARPl4jvWyIHtF2REM0UmVC4jl/oNyWvS66ZjlJXg7gyFaZlUBZDxL9LM8BSyNNpGXXgDjI8OsfQgXkChLrDuD715RPMCIfKJoPgEgF7TsBgrAuF8TsPar3Aqi/YiJxlLn3Rgev4e2PKNag+FxqVbqEVNAWrDRl1nvll/aL3F7l7yVoAAMOjasYsDq9IopWxU5S8k6o9Dz8VtLTVAAxlwi2LmWAJL9noDo+vhcfj61bqC0H5ONX7SlDOexTMy4lLrSku1zdschCs0zI8Uoq9qwzzKCgCjaWVeLNp0qYLS5iPKqAUiVSuJVUfpx+89Jx8fLrR41H2Oo9E4uERxNFC1AusCUM6LghGvaVSyuabSyg1WqGF0J9hO8o5TagAAUmVGte1cEg3VD8E74VYAAFGurzx2vUqVfujReDQhAmTPu6tYAY1JhK0AAymRiFJtXXEaJr05R9bUGpCooy15cRk3kRbuKYJhf8vYCpCoobV6Wj7Fc8QMwBGeVc1dvQACKXjIBhp6Wv0aKAghA4ScXYPC1e+wZDRCA8piyXw0ABl0rdsuogFQERevKC8Bg232+Y3RAAMpHTgHGvL/FPbIAsjMo3MfjxeZYOID55VruXLIBshMoFe96pwGjGy0rIJVBaXPL8r4t6ok5HRhVAKkKCtV40dul/8lA9gpyNkjFZUl0CK7iSw9GtQoCUGJgVAaM6oBg6WUHTNr9BUWiakusuzlj6UVxw1yb0mDsUkGw9JozPaX1FmDsCgiWXhQErttsBcbugAAUOihbggFAPhsEe5TfgdkaDAByfQYFKD+/o9G/kU6vM0Vb7nIVazZ9O4ICMC5cAkDeo7MDKADjjQcACK22VAQFYBByD0AIIg1NKoBS7nGQuRTOtQYgc3plvjwMMBi5BiAM0RJVFI+P7sgUDdYbgOgkJNrSC/sLnbyqfx9EKay0w3iDAjCUrYMKoizoazjrFy0AjDV5RAVZpOu4mW//vOo35gBjcQJRQRYLPFQUTVAAhk3eUEGMdNaoKP2DnnhOyjBpqCCGYp8ORd3Qo1r45QgVxFH7fuj++ef2719f/+eP4+dTte3P+lPQASSJEwIqSJxcIJKACgCQgElBSHEUACBxcoFIAioAQAImBSHFUQCAxMkFIgmoAAAJmBSEFEcBABInF4gkoAIAJGBSEFIcBQBInFwgkoAKAJCASUFIcRQAIHFygUgCKgBAAiYFIcVRAIDEyQUiCajAf6nkk+ebr5aPAAAAAElFTkSuQmCC;" vertex="1" parent="1">
          <mxGeometry x="440" y="408.75" width="70" height="70" as="geometry" />
        </mxCell>
        <mxCell id="m7qQhjfFafRTeIDe8pk5-58" style="edgeStyle=orthogonalEdgeStyle;rounded=0;orthogonalLoop=1;jettySize=auto;html=1;exitX=1;exitY=0.5;exitDx=0;exitDy=0;entryX=0;entryY=0.5;entryDx=0;entryDy=0;" edge="1" parent="1" source="m7qQhjfFafRTeIDe8pk5-47" target="m7qQhjfFafRTeIDe8pk5-55">
          <mxGeometry relative="1" as="geometry" />
        </mxCell>
        <mxCell id="m7qQhjfFafRTeIDe8pk5-47" value="模型快照" style="shape=image;verticalLabelPosition=bottom;labelBackgroundColor=default;verticalAlign=top;aspect=fixed;imageAspect=0;image=data:image/png,iVBORw0KGgoAAAANSUhEUgAAAMgAAADICAYAAACtWK6eAAAAAXNSR0IArs4c6QAAC/xJREFUeF7tnQ2S3LYOhOWTOTmZ45MlPllSjIderiyNQADEH3urXlXyQlJgoz+BlDTSlwN/UAAK3CrwBdpAAShwrwAAgTugwBsFAAjsAQUACDwABXgKoILwdEOvTRQAIJskGtPkKQBAeLqh1yYKAJBNEo1p8hQAIDzd0GsTBQDIJonGNHkKABCebui1iQIAZJNEY5o8BQAITzfNXn+9Bvt6M+j34zj+0TwgxqIrAEDoWmm27FB8mxi0QQJYJgTTaApANFSkj9HAmIHiamSAQtdb3BKAiCUkDaABxvlAAIUkvawRAJHp99R7BRgA5Ul1xf8OQBTFHIayAAOgrMndp1EBiK7IHmAAFN0cApAFekYAA6AsSCwqiEzUiGAAFFlOUUEU9MsABkBRSDQqyJyIGcEAKHM5RgVh6FUBDIDCSDwqyHvRKoIBUCZAASDXYu0ABkAhgAJAPkT64ziO9j/ps1IE2UM3wSMsQ3oAyHFwnqwN7XCl4ADKcRw7AwIwaCRtDcqOgAAMGhjYo2xWQQAGD4ytQdmhggAMHTC2BKUyIDteql2DwvtRS+9RKgICMDww+fliiXK/ma8ECMDwAePqqA2UvrSNExUjkgqAAAxG4o26pAclMyAAw8jlCodJC0pGQACGgmOdhkgHSiZAAIaTqxccNg0oGQABGAscGmTI8KBEBgRgBHGxQRj98nC4dxBHBARgGDgy6CHC3UuJBAjACOpah7DCgBIBEIDh4MAkh3QHxRMQgJHEpQHCdAPFGhD8rDWA2xKHYA6KFSB45DyxKwOGbgbKakAARkB3FQppOSirAAEYhVyYYCrLQNEGBGAkcFPhENVB0QQEV6UKOy/Z1NQeYdEABGAkc88m4apUEykg7bLt35sIjmnmVEDkcUlnwJHTMLtF3SrJn9xJSwBplaNBgj8oEF0B9p6ECwiqR3RLIL6zAiyvszq99h2oHjBhJgVYVQSAZEoxYpUoAEAk6qFveQVYm3VuBfm3vJyYYDUFTAHBFaxq9qk/H1NAcPe8vqGqzdB0DwJAqtmn/nzazcLpt6Zw9yBNTuxD6puqygxZy6s2eQkgqCJV7FN/HqzqIQWk9Qck9c2VfYZsODQAASTZ7VM7ftbGfJREssQax0ElqW20jLMTVY4+YS1A2njt2axveMI3o5dKxSyuGisqyDgmQCnltzSTUQVjRQU5KwlQ0ngrdaBLwLAApB8DoKT2X9jgl4JhCQhACeuxlIGZgOEBCEBJ6ccwQZuC4QkIQAnjuRSBuIARARCAksKfbkG6ghEJEIDi5sGQBw4BRkRAAEpIv5oFFQqMyIAAFDNPhjhQSDAyADJmD896hfCyahChwcgGSI8XoKh61GWwFGBkBQSguHhafNAGRfvr348RD2g1gObTvFYxY+nloTTvmGnByF5BzunC0otn4FW90oNRDRAsvVZZfW7cMmBUBaTPC08Qzxlb2rocGNUBAShSy9P6lwVjF0AACs3os63Kg7ESkP7dkKvvh/Q3202/4W42gzftsfSSCekJxpOvlnhK8zLvrPma2G1SSyb24IPZWGW2yt/b8+beTK7U49QAZGYCd1ZRnxjRkxqxEw+VsplXXppYLTc9P7PiqcUtBUT7W4VqE5tUFKB8FswrDx0MjddHqcxBCsiq74SoTG4SEs3kMA4doouX7qu0Z7+0WmOTbnH32ithu1UUL51XgTGebUSQSCqI5ecPvBJYHRQvXS3AGCFhv4aUC4hF9bhac3gltBooXjpag9E9xK4i2QDpE/ZKcHZQvHTzAkNcRbiArNqcz+5UvRKeDRQvnSKAIaoiXEAs9x8UaLwMEB0UL10igQFABoK8DBENFC8dWira/vRr0M9gTBeE6Q4vM0ZZYt1VFy+DeIPiNe8ORrvBF/WPtVGvCsi4mfd43ssaFIDxjKUpINqPmDxPT9bC6ylUyfNElBl7gWF9AqBo8dSGpRW3grRgoi+z7u6j9OXAk6Da/13z3hEr2QoTyghGnzbL66xOryNmqyKjP7wqinStDjB4lLN1kwAiTTZvqrq9PEGhno0zxKibFf3R2D5ndxzmoLl00JeGPiL7LEM/xGXL8ZeX4z97XFzoAVLhFU7dpDv7OawWnQYgFSrJefmV7g2ASlarBEaTRHzS0wKkBbP6io2SB8jDiMUlH8m/YTUwWvVt+RP/nFsTkJ7mfvaNfNNoxpKVQQEYD05YAQhAmcHPpy3AIOq+EpAxhCobeZV1LTE3K5pVykPTR20pdSe2FSBjVcHSa4X1348JMJiaWwMCUJiJYnSrdtHEpGKcdfYCBKAwHE/sUm1/4QJG19obEIBCdD2hGcAgiDTbJAogAGU2cx/tAQZfu8ee0QCpCkqbl/bdeYDxaG95g6iAAJT73AIMue/JI0QHBKDUXkqFf0ohCyA7g1KxYoQHI9pVLHLJezWsdOOr3Q3+cbFHqQbG3Txnc2/aPlsFOYtTCZQ2t/4Eqsbr/02N9OZgyx8HWTnR7IBUXHqtzLfl2KnByL7Eukt0tYpiaWitY5UAoyogqChaNp8fpxQY1QEBKPMG5/YoCcZKQPpTpO39rO2vXaEZ/zxeRoClF9f+9/08wOjeOke1zFOam/RZE3q8zqbaz4H1bf88ojUYM5e71e+vaACi8QI59Yk95BmgPINwdZZWeRHCxKFnT7p9aDU/SQHRgGPUS21ixCQAlGehrCtGi4gLhrqXpICs+pAOQHk27uoWvVqIX51DDHRmKUUc8v/frLcXx7H/JIBoUP4UOEB5Ukj/v1trvgIMtUoiAWRV9bhKuXXSdlx6WWu8GozRR+zXj3IBsageEUDRWg/rn+d1RvTYX1iC0VViL7WyAaJ+lWLCZ14nhYkQyU13AUNcRbiARPl4jvWyIHtF2REM0UmVC4jl/oNyWvS66ZjlJXg7gyFaZlUBZDxL9LM8BSyNNpGXXgDjI8OsfQgXkChLrDuD715RPMCIfKJoPgEgF7TsBgrAuF8TsPar3Aqi/YiJxlLn3Rgev4e2PKNag+FxqVbqEVNAWrDRl1nvll/aL3F7l7yVoAAMOjasYsDq9IopWxU5S8k6o9Dz8VtLTVAAxlwi2LmWAJL9noDo+vhcfj61bqC0H5ONX7SlDOexTMy4lLrSku1zdschCs0zI8Uoq9qwzzKCgCjaWVeLNp0qYLS5iPKqAUiVSuJVUfpx+89Jx8fLrR41H2Oo9E4uERxNFC1AusCUM6LghGvaVSyuabSyg1WqGF0J9hO8o5TagAAUmVGte1cEg3VD8E74VYAAFGurzx2vUqVfujReDQhAmTPu6tYAY1JhK0AAymRiFJtXXEaJr05R9bUGpCooy15cRk3kRbuKYJhf8vYCpCoobV6Wj7Fc8QMwBGeVc1dvQACKXjIBhp6Wv0aKAghA4ScXYPC1e+wZDRCA8piyXw0ABl0rdsuogFQERevKC8Bg232+Y3RAAMpHTgHGvL/FPbIAsjMo3MfjxeZYOID55VruXLIBshMoFe96pwGjGy0rIJVBaXPL8r4t6ok5HRhVAKkKCtV40dul/8lA9gpyNkjFZUl0CK7iSw9GtQoCUGJgVAaM6oBg6WUHTNr9BUWiakusuzlj6UVxw1yb0mDsUkGw9JozPaX1FmDsCgiWXhQErttsBcbugAAUOihbggFAPhsEe5TfgdkaDAByfQYFKD+/o9G/kU6vM0Vb7nIVazZ9O4ICMC5cAkDeo7MDKADjjQcACK22VAQFYBByD0AIIg1NKoBS7nGQuRTOtQYgc3plvjwMMBi5BiAM0RJVFI+P7sgUDdYbgOgkJNrSC/sLnbyqfx9EKay0w3iDAjCUrYMKoizoazjrFy0AjDV5RAVZpOu4mW//vOo35gBjcQJRQRYLPFQUTVAAhk3eUEGMdNaoKP2DnnhOyjBpqCCGYp8ORd3Qo1r45QgVxFH7fuj++ef2719f/+eP4+dTte3P+lPQASSJEwIqSJxcIJKACgCQgElBSHEUACBxcoFIAioAQAImBSHFUQCAxMkFIgmoAAAJmBSEFEcBABInF4gkoAIAJGBSEFIcBQBInFwgkoAKAJCASUFIcRQAIHFygUgCKgBAAiYFIcVRAIDEyQUiCajAf6nkk+ebr5aPAAAAAElFTkSuQmCC;" vertex="1" parent="1">
          <mxGeometry x="440" y="283.87" width="70" height="70" as="geometry" />
        </mxCell>
        <mxCell id="m7qQhjfFafRTeIDe8pk5-48" value="&lt;b&gt;...&lt;/b&gt;" style="text;html=1;align=center;verticalAlign=middle;resizable=0;points=[];autosize=1;strokeColor=none;fillColor=none;" vertex="1" parent="1">
          <mxGeometry x="455" y="375" width="30" height="30" as="geometry" />
        </mxCell>
        <mxCell id="m7qQhjfFafRTeIDe8pk5-57" style="edgeStyle=orthogonalEdgeStyle;rounded=0;orthogonalLoop=1;jettySize=auto;html=1;exitX=1;exitY=0.5;exitDx=0;exitDy=0;entryX=0;entryY=0.5;entryDx=0;entryDy=0;" edge="1" parent="1" source="m7qQhjfFafRTeIDe8pk5-55" target="m7qQhjfFafRTeIDe8pk5-25">
          <mxGeometry relative="1" as="geometry">
            <Array as="points">
              <mxPoint x="800" y="319" />
              <mxPoint x="800" y="185" />
            </Array>
          </mxGeometry>
        </mxCell>
        <mxCell id="m7qQhjfFafRTeIDe8pk5-60" style="edgeStyle=orthogonalEdgeStyle;rounded=0;orthogonalLoop=1;jettySize=auto;html=1;exitX=1;exitY=0.5;exitDx=0;exitDy=0;" edge="1" parent="1" source="m7qQhjfFafRTeIDe8pk5-55" target="m7qQhjfFafRTeIDe8pk5-35">
          <mxGeometry relative="1" as="geometry" />
        </mxCell>
        <mxCell id="m7qQhjfFafRTeIDe8pk5-61" style="edgeStyle=orthogonalEdgeStyle;rounded=0;orthogonalLoop=1;jettySize=auto;html=1;exitX=1;exitY=0.5;exitDx=0;exitDy=0;entryX=0;entryY=0.5;entryDx=0;entryDy=0;" edge="1" parent="1" source="m7qQhjfFafRTeIDe8pk5-55" target="m7qQhjfFafRTeIDe8pk5-32">
          <mxGeometry relative="1" as="geometry">
            <Array as="points">
              <mxPoint x="800" y="319" />
              <mxPoint x="800" y="465" />
            </Array>
          </mxGeometry>
        </mxCell>
        <mxCell id="m7qQhjfFafRTeIDe8pk5-63" value="webhook &lt;br&gt;挂载pv" style="edgeLabel;html=1;align=center;verticalAlign=middle;resizable=0;points=[];" vertex="1" connectable="0" parent="m7qQhjfFafRTeIDe8pk5-61">
          <mxGeometry x="-0.6158" relative="1" as="geometry">
            <mxPoint as="offset" />
          </mxGeometry>
        </mxCell>
        <mxCell id="m7qQhjfFafRTeIDe8pk5-55" value="ModelsBinding Operator" style="shape=hexagon;perimeter=hexagonPerimeter2;whiteSpace=wrap;html=1;fixedSize=1;fillColor=#dae8fc;strokeColor=#6c8ebf;" vertex="1" parent="1">
          <mxGeometry x="580" y="257.06" width="120" height="123.37" as="geometry" />
        </mxCell>
        <mxCell id="m7qQhjfFafRTeIDe8pk5-65" style="edgeStyle=orthogonalEdgeStyle;rounded=1;orthogonalLoop=1;jettySize=auto;html=1;exitX=0.5;exitY=1;exitDx=0;exitDy=0;strokeWidth=3;endArrow=classicThin;endFill=1;endSize=0;startSize=0;jumpSize=0;strokeColor=#99CCFF;" edge="1" parent="1" source="m7qQhjfFafRTeIDe8pk5-64">
          <mxGeometry relative="1" as="geometry">
            <mxPoint x="360" y="310" as="targetPoint" />
          </mxGeometry>
        </mxCell>
        <mxCell id="m7qQhjfFafRTeIDe8pk5-64" value="SnapShot、StorageClass、PVC、PV" style="ellipse;whiteSpace=wrap;html=1;fillColor=#dae8fc;strokeColor=#6c8ebf;" vertex="1" parent="1">
          <mxGeometry x="300" y="170" width="120" height="70" as="geometry" />
        </mxCell>
        <mxCell id="m7qQhjfFafRTeIDe8pk5-66" value="&lt;b style=&quot;font-size: 16px;&quot;&gt;...&lt;/b&gt;" style="text;html=1;align=center;verticalAlign=middle;resizable=0;points=[];autosize=1;strokeColor=none;fillColor=none;fontSize=16;" vertex="1" parent="1">
          <mxGeometry x="81.19999999999999" y="368.87" width="40" height="30" as="geometry" />
        </mxCell>
      </root>
    </mxGraphModel>
  </diagram>
</mxfile>
